# xmcd CD database file
#
# Track frame offsets:
#	150
#	6651
#	17184
#	40745
#	49120
#	58228
#	89746
#	116382
#	123601
#
# Disc length: 2452 seconds
#
# Revision: 1
# Processed by: cddbd v1.5.2PL0 Copyright (c) Steve Scherf et al.
# Submitted via: CDex 1.70beta2
#
DISCID=7e099209
DTITLE=Michiel Borstlap - Piano Solo
DYEAR=2004
DGENRE=Jazz
TTITLE0=Someday My Prince Will Come
TTITLE1=Somewhere Over The Rainbow
TTITLE2=Blues For Tado
TTITLE3=Stella By Starlight
TTITLE4=My Romance
TTITLE5=Dolphin Dance
TTITLE6=For Willem
TTITLE7=All Of You
TTITLE8='Round Midnight
EXTD=YEAR: 2004
EXTT0=
EXTT1=
EXTT2=
EXTT3=
EXTT4=
EXTT5=
EXTT6=
EXTT7=
EXTT8=
PLAYORDER=
